<svg width="800" height="800" viewBox="0 0 800 800" fill="none" xmlns="http://www.w3.org/2000/svg">
<g clip-path="url(#clip0_17_10)">
<path d="M766.667 33.3333V633.333H666.667V600H733.333V66.6667H66.6666V600H333.333V633.333H33.3333V33.3333H766.667ZM533.333 100H266.667V133.333H533.333V100ZM466.667 200V166.667H333.333V200H466.667ZM233.333 366.667H99.9999V400H233.333V366.667ZM233.333 433.333H99.9999V466.667H233.333V433.333ZM99.9999 533.333H166.667V500H99.9999V533.333ZM566.667 433.333C566.667 446.519 562.757 459.408 555.431 470.371C548.106 481.335 537.694 489.879 525.512 494.925C513.33 499.971 499.926 501.291 486.994 498.719C474.062 496.147 462.183 489.797 452.859 480.474C443.536 471.15 437.187 459.271 434.614 446.339C432.042 433.407 433.362 420.003 438.408 407.821C443.454 395.639 451.999 385.227 462.962 377.902C473.925 370.577 486.814 366.667 500 366.667C517.676 366.684 534.622 373.714 547.121 386.212C559.62 398.711 566.649 415.658 566.667 433.333ZM533.333 433.333C533.333 426.741 531.378 420.296 527.716 414.814C524.053 409.333 518.847 405.06 512.756 402.537C506.665 400.014 499.963 399.354 493.497 400.64C487.031 401.927 481.091 405.101 476.43 409.763C471.768 414.425 468.593 420.364 467.307 426.83C466.021 433.296 466.681 439.999 469.204 446.089C471.727 452.18 475.999 457.386 481.481 461.049C486.963 464.712 493.407 466.667 500 466.667C508.838 466.658 517.311 463.143 523.56 456.894C529.81 450.645 533.324 442.171 533.333 433.333ZM533.4 290.233C534.904 294.464 537.277 298.333 540.366 301.591C543.455 304.849 547.192 307.425 551.337 309.152C555.481 310.878 559.941 311.719 564.43 311.618C568.919 311.517 573.337 310.478 577.4 308.567C584.041 305.464 591.47 304.462 598.695 305.695C605.921 306.928 612.598 310.337 617.833 315.467C623.017 320.647 626.472 327.304 627.725 334.524C628.978 341.745 627.968 349.176 624.833 355.8C622.903 359.866 621.847 364.291 621.733 368.79C621.619 373.29 622.45 377.763 624.171 381.921C625.892 386.08 628.466 389.831 631.726 392.934C634.987 396.036 638.861 398.421 643.1 399.933C649.988 402.394 655.948 406.924 660.161 412.903C664.375 418.883 666.637 426.019 666.637 433.333C666.637 440.648 664.375 447.784 660.161 453.763C655.948 459.743 649.988 464.273 643.1 466.733C638.859 468.239 634.982 470.617 631.718 473.715C628.454 476.813 625.877 480.561 624.152 484.717C622.427 488.874 621.594 493.346 621.705 497.844C621.817 502.343 622.871 506.768 624.8 510.833C627.153 515.66 628.365 520.963 628.34 526.333C628.315 531.703 627.055 536.995 624.658 541.8C622.26 546.605 618.789 550.794 614.513 554.042C610.238 557.291 605.272 559.512 600 560.533V795.4L500 710.8L400 795.4V560.533C394.733 559.51 389.771 557.29 385.499 554.043C381.227 550.797 377.758 546.612 375.361 541.811C372.964 537.011 371.703 531.723 371.675 526.358C371.647 520.992 372.853 515.692 375.2 510.867C377.134 506.799 378.193 502.371 378.308 497.869C378.422 493.367 377.59 488.891 375.865 484.73C374.14 480.57 371.56 476.818 368.293 473.718C365.026 470.618 361.145 468.238 356.9 466.733C350.011 464.273 344.052 459.743 339.839 453.763C335.625 447.784 333.363 440.648 333.363 433.333C333.363 426.019 335.625 418.883 339.839 412.903C344.052 406.924 350.011 402.394 356.9 399.933C361.142 398.424 365.02 396.042 368.284 392.941C371.548 389.84 374.125 386.089 375.85 381.93C377.574 377.771 378.407 373.297 378.295 368.796C378.183 364.295 377.129 359.868 375.2 355.8C372.061 349.179 371.045 341.75 372.293 334.529C373.54 327.309 376.989 320.651 382.167 315.467C387.403 310.35 394.076 306.951 401.294 305.724C408.512 304.497 415.933 305.5 422.567 308.6C426.632 310.51 431.052 311.548 435.542 311.647C440.033 311.745 444.494 310.902 448.639 309.172C452.784 307.442 456.52 304.863 459.608 301.601C462.696 298.339 465.066 294.467 466.567 290.233C469.02 283.333 473.55 277.362 479.533 273.139C485.516 268.917 492.66 266.65 499.983 266.65C507.307 266.65 514.45 268.917 520.433 273.139C526.417 277.362 530.946 283.333 533.4 290.233ZM566.667 723.567V555.567C559.569 554.667 552.379 556.25 546.316 560.048C540.253 563.845 535.689 569.622 533.4 576.4C530.939 583.289 526.409 589.248 520.43 593.461C514.451 597.675 507.315 599.937 500 599.937C492.685 599.937 485.549 597.675 479.57 593.461C473.591 589.248 469.06 583.289 466.6 576.4C464.31 569.622 459.747 563.845 453.684 560.048C447.621 556.25 440.431 554.667 433.333 555.567V723.533L500 667.133L566.667 723.567ZM502 565.267C506.535 552.512 514.907 541.474 525.966 533.667C537.025 525.861 550.23 521.669 563.767 521.667C573.79 521.774 583.675 524.012 592.767 528.233L594.7 525.2C590.76 516.925 588.602 507.914 588.365 498.752C588.128 489.589 589.817 480.479 593.324 472.011C596.83 463.543 602.076 455.906 608.721 449.593C615.366 443.281 623.263 438.434 631.9 435.367V431.3C623.269 428.224 615.38 423.372 608.74 417.058C602.101 410.744 596.859 403.108 593.354 394.643C589.848 386.178 588.157 377.072 588.389 367.912C588.621 358.753 590.771 349.744 594.7 341.467L591.8 338.667C583.523 342.595 574.514 344.743 565.356 344.972C556.197 345.202 547.092 343.507 538.629 339.998C530.166 336.489 522.533 331.244 516.224 324.601C509.914 317.958 505.069 310.066 502 301.433H498C494.931 310.066 490.085 317.958 483.776 324.601C477.467 331.244 469.834 336.489 461.371 339.998C452.908 343.507 443.803 345.202 434.644 344.972C425.485 344.743 416.477 342.595 408.2 338.667L405.3 341.467C409.229 349.744 411.379 358.753 411.611 367.912C411.843 377.072 410.151 386.178 406.646 394.643C403.14 403.108 397.899 410.744 391.259 417.058C384.62 423.372 376.73 428.224 368.1 431.3V435.367C376.737 438.434 384.633 443.281 391.279 449.593C397.924 455.906 403.17 463.543 406.676 472.011C410.183 480.479 411.872 489.589 411.635 498.752C411.398 507.914 409.24 516.925 405.3 525.2L407.233 528.2C416.327 523.991 426.213 521.764 436.233 521.667C449.77 521.669 462.974 525.861 474.034 533.667C485.093 541.474 493.465 552.512 498 565.267L500 566.667L502 565.267Z" fill="#DC9C60"/>
</g>
<defs>
<clipPath id="clip0_17_10">
<rect width="800" height="800" fill="white"/>
</clipPath>
</defs>
</svg>
