<svg width="800" height="800" viewBox="0 0 800 800" fill="none" xmlns="http://www.w3.org/2000/svg">
<path d="M150 100C122.656 100 100 122.656 100 150C100 177.344 122.656 200 150 200C177.344 200 200 177.344 200 150C200 122.656 177.344 100 150 100ZM250 125C236.23 125 225 136.23 225 150C225 163.77 236.23 175 250 175C263.77 175 275 163.77 275 150C275 136.23 263.77 125 250 125ZM325 125C311.23 125 300 136.23 300 150C300 163.77 311.23 175 325 175C338.77 175 350 163.77 350 150C350 136.23 338.77 125 325 125ZM400 125C386.23 125 375 136.23 375 150C375 163.77 386.23 175 400 175C413.77 175 425 163.77 425 150C425 136.23 413.77 125 400 125ZM475 125C461.23 125 450 136.23 450 150C450 163.77 461.23 175 475 175C488.77 175 500 163.77 500 150C500 136.23 488.77 125 475 125ZM550 125C536.23 125 525 136.23 525 150C525 163.77 536.23 175 550 175C563.77 175 575 163.77 575 150C575 136.23 563.77 125 550 125ZM625 125C611.23 125 600 136.23 600 150C600 163.77 611.23 175 625 175C638.77 175 650 163.77 650 150C650 136.23 638.77 125 625 125ZM675 175C661.23 175 650 186.23 650 200C650 213.77 661.23 225 675 225C688.77 225 700 213.77 700 200C700 186.23 688.77 175 675 175ZM400 250C358.691 250 325 283.691 325 325C325 356.25 365.332 437.305 377.734 461.426L400 504.688L422.266 461.426C434.668 437.305 475 356.25 475 325C475 283.691 441.309 250 400 250ZM675 250C661.23 250 650 261.23 650 275C650 288.77 661.23 300 675 300C688.77 300 700 288.77 700 275C700 261.23 688.77 250 675 250ZM400 300C413.77 300 425 311.23 425 325C425 338.77 413.77 350 400 350C386.23 350 375 338.77 375 325C375 311.23 386.23 300 400 300ZM675 325C661.23 325 650 336.23 650 350C650 363.77 661.23 375 675 375C688.77 375 700 363.77 700 350C700 336.23 688.77 325 675 325ZM675 400C661.23 400 650 411.23 650 425C650 438.77 661.23 450 675 450C688.77 450 700 438.77 700 425C700 411.23 688.77 400 675 400ZM175 450C161.23 450 150 461.23 150 475C150 488.77 161.23 500 175 500C188.77 500 200 488.77 200 475C200 461.23 188.77 450 175 450ZM250 450C236.23 450 225 461.23 225 475C225 488.77 236.23 500 250 500C263.77 500 275 488.77 275 475C275 461.23 263.77 450 250 450ZM325 450C311.23 450 300 461.23 300 475C300 488.77 311.23 500 325 500C338.77 500 350 488.77 350 475C350 461.23 338.77 450 325 450ZM475 450C461.23 450 450 461.23 450 475C450 488.77 461.23 500 475 500C488.77 500 500 488.77 500 475C500 461.23 488.77 450 475 450ZM550 450C536.23 450 525 461.23 525 475C525 488.77 536.23 500 550 500C563.77 500 575 488.77 575 475C575 461.23 563.77 450 550 450ZM625 450C611.23 450 600 461.23 600 475C600 488.77 611.23 500 625 500C638.77 500 650 488.77 650 475C650 461.23 638.77 450 625 450ZM125 500C111.23 500 100 511.23 100 525C100 538.77 111.23 550 125 550C138.77 550 150 538.77 150 525C150 511.23 138.77 500 125 500ZM125 575C111.23 575 100 586.23 100 600C100 613.77 111.23 625 125 625C138.77 625 150 613.77 150 600C150 586.23 138.77 575 125 575ZM650 600C622.656 600 600 622.656 600 650C600 677.344 622.656 700 650 700C677.344 700 700 677.344 700 650C700 622.656 677.344 600 650 600ZM175 625C161.23 625 150 636.23 150 650C150 663.77 161.23 675 175 675C188.77 675 200 663.77 200 650C200 636.23 188.77 625 175 625ZM250 625C236.23 625 225 636.23 225 650C225 663.77 236.23 675 250 675C263.77 675 275 663.77 275 650C275 636.23 263.77 625 250 625ZM325 625C311.23 625 300 636.23 300 650C300 663.77 311.23 675 325 675C338.77 675 350 663.77 350 650C350 636.23 338.77 625 325 625ZM400 625C386.23 625 375 636.23 375 650C375 663.77 386.23 675 400 675C413.77 675 425 663.77 425 650C425 636.23 413.77 625 400 625ZM475 625C461.23 625 450 636.23 450 650C450 663.77 461.23 675 475 675C488.77 675 500 663.77 500 650C500 636.23 488.77 625 475 625ZM550 625C536.23 625 525 636.23 525 650C525 663.77 536.23 675 550 675C563.77 675 575 663.77 575 650C575 636.23 563.77 625 550 625Z" fill="#DC9C60" fill-opacity="0.83"/>
<circle cx="150" cy="150" r="50" fill="#DC9C60"/>
<circle cx="650" cy="650" r="50" fill="#CAAB8E"/>
</svg>
